# xmcd
#
# Track frame offsets:
#	150
#	48497
#	120401
#	170885
#	193373
#	238332
#	292008
#
# Disc length: 4229 seconds
#
# Revision: 1
# Processed by: cddbd v1.5.2PL0 Copyright (c) Steve Scherf et al.
# Submitted via: audiograbber 1.83.01
#
DISCID=70108307
DTITLE=Grateful Dead - 78-05-06 Patrick Gym, University of Vermont, Burlington 
DTITLE=VT
DYEAR=1900
DGENRE=
TTITLE0=Terrapin Station
TTITLE1=Playing In The Band
TTITLE2=Drums
TTITLE3=Space
TTITLE4=Wharf Rat
TTITLE5=Sugar Magnolia
TTITLE6=One More Saturday Night
EXTD=
EXTT0=
EXTT1=
EXTT2=
EXTT3=
EXTT4=
EXTT5=
EXTT6=
PLAYORDER=
